#!OML:ASF F:\VICON\USERDATA\INSTALL\rory3\rory3.ASF
:FULLY-SPECIFIED
:DEGREES
292
root 1.28769 17.8135 -17.3641 0.960952 -1.17152 -0.563706
lowerback 5.86211 -0.161657 -0.88966
upperback -0.468592 -0.189514 2.36843
thorax -3.76313 -0.0522853 2.9679
lowerneck -18.7182 -3.91112 -9.67737
upperneck 16.5864 -4.09373 6.90691
head 8.60116 -1.83312 3.40597
rclavicle -1.38155e-014 -1.03368e-014
rhumerus -33.4426 -10.8323 -79.4185
rradius 35.8939
rwrist 5.30324
rhand -13.1269 12.1151
rfingers 7.12502
rthumb 12.9709 -17.4617
lclavicle -1.38155e-014 -1.03368e-014
lhumerus -32.4271 4.65513 85.0298
lradius 34.0102
lwrist -8.42471
lhand -12.6342 31.2369
lfingers 7.12502
lthumb 13.4458 60.7829
rfemur -4.87783 3.73221 20.7664
rtibia 18.0748
rfoot -9.1307 -8.26691
rtoes 2.60583
lfemur -6.04625 -2.79211 -20.5705
ltibia 19.7804
lfoot -11.3535 4.60767
ltoes 2.53003
293
root 1.28546 17.8166 -17.3591 1.05285 -1.06501 -0.425487
lowerback 5.71964 -0.193912 -1.02013
upperback -0.464456 -0.243395 2.33361
thorax -3.67509 -0.0778344 3.00872
lowerneck -18.8413 -3.92348 -9.76368
upperneck 16.5615 -4.10027 7.03632
head 8.61974 -1.82582 3.46314
rclavicle 7.23079e-015 1.03368e-014
rhumerus -33.4159 -11.0495 -79.3307
rradius 35.6578
rwrist 5.39474
rhand -13.0895 12.1156
rfingers 7.12502
rthumb 13.007 -17.4589
lclavicle 7.23079e-015 1.03368e-014
lhumerus -32.3428 4.69163 85.0769
lradius 33.9089
lwrist -9.30826
lhand -16.4381 26.0451
lfingers 7.12502
lthumb 9.77746 55.7981
rfemur -4.96461 3.67145 20.6295
rtibia 18.0955
rfoot -9.10127 -8.30535
rtoes 2.19697
lfemur -6.14888 -2.80579 -20.7193
ltibia 19.7635
lfoot -11.3627 4.59271
ltoes 1.53088
294
root 1.28203 17.8188 -17.3575 1.11555 -1.04621 -0.491354
lowerback 5.65579 -0.194425 -0.996549
upperback -0.463018 -0.24106 2.37562
thorax -3.63775 -0.0771635 3.0382
lowerneck -18.8999 -3.93021 -9.79216
upperneck 16.4741 -4.10308 7.09035
head 8.60241 -1.82159 3.48472
rclavicle -3.18055e-015 -5.56597e-015
rhumerus -33.4027 -11.3068 -79.1938
rradius 35.426
rwrist 5.59596
rhand -13.0455 12.3989
rfingers 7.12502
rthumb 13.0493 -17.1729
lclavicle -3.18055e-015 -5.56597e-015
lhumerus -32.3291 4.67851 85.1657
lradius 33.8545
lwrist -10.1416
lhand -18.0497 23.2213
lfingers 7.12502
lthumb 8.22241 53.0413
rfemur -5.04625 3.81051 20.7287
rtibia 18.1241
rfoot -9.06832 -8.49441
rtoes 1.9733
lfemur -6.20492 -2.83636 -20.6263
ltibia 19.7767
lfoot -11.4037 4.63408
ltoes 1.63404
295
root 1.27724 17.8169 -17.3563 1.11535 -0.961896 -0.622707
lowerback 5.6975 -0.206528 -0.888984
upperback -0.50091 -0.247655 2.41474
thorax -3.70038 -0.0811376 3.01948
lowerneck -18.775 -3.97444 -9.79481
upperneck 16.4058 -4.17178 7.08535
head 8.56363 -1.85646 3.47393
rclavicle -2.46741e-014 0
rhumerus -33.5671 -11.4796 -79.1065
rradius 35.3887
rwrist 5.57882
rhand -13.0442 12.669
rfingers 7.12502
rthumb 13.0506 -16.9027
lclavicle -2.46741e-014 0
lhumerus -32.439 4.3553 85.3315
lradius 33.7991
lwrist -10.0739
lhand -18.9818 21.5942
lfingers 7.12502
lthumb 7.32268 51.4475
rfemur -4.96421 3.99948 20.9102
rtibia 18.0284
rfoot -9.08096 -8.76312
rtoes 2.22998
lfemur -6.20717 -3.02153 -20.4522
ltibia 19.8869
lfoot -11.4636 4.64889
ltoes 2.06541
